<?xml version="1.0" encoding="iso-8859-1"?>
<!-- Generator: Adobe Illustrator 19.0.0, SVG Export Plug-In . SVG Version: 6.00 Build 0)  -->
<svg version="1.1" id="Layer_1" xmlns="http://www.w3.org/2000/svg" xmlns:xlink="http://www.w3.org/1999/xlink" x="0px" y="0px"
	 viewBox="0 0 512 512" style="enable-background:new 0 0 512 512;" xml:space="preserve">
<path style="fill:#FFB555;" d="M424.082,344.039H87.918l17.481-73.08l31.096-129.954c5.12-27.126,33.74-42.83,59.371-32.58
	l43.854,17.533c10.449,4.18,22.11,4.18,32.559,0l43.854-17.533c25.631-10.25,54.251,5.454,59.371,32.58l31.096,129.954
	L424.082,344.039z"/>
<path style="fill:#CC8525;" d="M375.5,141.005c-4.763-25.242-29.864-40.58-53.98-34.338c15.772,4.077,28.88,16.819,32.186,34.338
	l48.58,203.033h21.794L375.5,141.005z"/>
<polygon style="fill:#64C1DF;" points="424.082,344.039 87.918,344.039 105.399,270.959 406.601,270.959 "/>
<polygon style="fill:#37A0BD;" points="406.601,270.959 384.805,270.959 402.286,344.039 424.082,344.039 "/>
<polygon style="fill:#FFFFFF;" points="105.399,270.959 87.918,344.039 109.714,344.039 127.195,270.959 "/>
<path style="fill:#CC8525;" d="M441.469,406.732H70.531c-34.625,0-62.694-28.069-62.694-62.694l0,0h496.327l0,0
	C504.163,378.663,476.094,406.732,441.469,406.732z"/>
<rect x="364.565" y="263.126" width="15.673" height="15.673"/>
<path d="M430.263,336.201l-47.099-196.843c-2.919-15.158-12.345-28.103-25.885-35.533c-13.598-7.464-29.66-8.441-44.06-2.678
	l-43.844,17.538c-8.627,3.449-18.125,3.449-26.749,0.001l-43.844-17.538c-14.401-5.761-30.46-4.786-44.06,2.678
	c-13.54,7.43-22.966,20.374-25.885,35.533L81.737,336.201H0v7.837c0,38.891,31.64,70.531,70.531,70.531h370.939
	c38.891,0,70.531-31.639,70.531-70.531v-7.837H430.263z M111.588,278.795h237.299v-15.673H115.338l28.784-120.294l0.079-0.371
	c2.003-10.62,8.587-19.693,18.061-24.893c9.474-5.2,20.665-5.88,30.699-1.866l43.844,17.539c12.378,4.95,26.013,4.951,38.39-0.001
	l43.844-17.538c10.035-4.013,21.225-3.333,30.699,1.866c9.474,5.199,16.058,14.272,18.061,24.893l0.036,0.186L414.147,336.2H97.853
	L111.588,278.795z M441.469,398.895H70.531c-27.587,0-50.484-20.471-54.299-47.02h479.537
	C491.954,378.423,469.057,398.895,441.469,398.895z"/>
<g>
</g>
<g>
</g>
<g>
</g>
<g>
</g>
<g>
</g>
<g>
</g>
<g>
</g>
<g>
</g>
<g>
</g>
<g>
</g>
<g>
</g>
<g>
</g>
<g>
</g>
<g>
</g>
<g>
</g>
</svg>
