<?xml version="1.0" encoding="iso-8859-1"?>
<!-- Generator: Adobe Illustrator 19.0.0, SVG Export Plug-In . SVG Version: 6.00 Build 0)  -->
<svg version="1.1" id="Layer_1" xmlns="http://www.w3.org/2000/svg" xmlns:xlink="http://www.w3.org/1999/xlink" x="0px" y="0px"
	 viewBox="0 0 512 512" style="enable-background:new 0 0 512 512;" xml:space="preserve">
<path style="fill:#1EB615;" d="M201.906,99.378H10.449v247.761l355.918,0.002c0-11.898,1.43-22.11,3.732-30.855
	c9.589-36.426,34.358-47.282,34.462-47.327l0.001-0.002C312.057,245.864,207.147,203.284,201.906,99.378z"/>
<circle style="fill:#FFFFFF;" cx="97.176" cy="247.286" r="41.796"/>
<rect x="10.449" y="347.147" style="fill:#E6E7E8;" width="491.102" height="65.484"/>
<path style="fill:#FFFFFF;" d="M404.566,268.957c0,0-38.198,16.622-38.198,78.183h135.184
	C501.551,285.581,464.304,283.866,404.566,268.957z"/>
<path d="M97.174,195.039c-28.807,0-52.244,23.437-52.244,52.245s23.437,52.245,52.244,52.245c28.808,0,52.246-23.437,52.246-52.245
	S125.982,195.039,97.174,195.039z M97.174,278.631c-17.285,0-31.346-14.062-31.346-31.347s14.061-31.347,31.346-31.347
	c17.286,0,31.348,14.062,31.348,31.347S114.46,278.631,97.174,278.631z"/>
<path d="M486.633,285.446c-15.381-11.405-35.923-16.252-61.93-22.389c-5.661-1.335-11.516-2.717-17.609-4.237
	c-0.001,0-0.003-0.001-0.004-0.001c-35.362-8.827-65.669-19.06-91.131-30.842c1.095-5.039-1.672-10.233-6.655-12.032
	c-4.173-1.508-8.671-0.186-11.421,2.97c-7.685-4.187-14.832-8.552-21.456-13.098c1.375-4.471-0.385-9.471-4.569-12.002
	c-3.514-2.13-7.78-1.93-11.029,0.141c-6.066-5.13-11.553-10.469-16.463-16.022c2.32-4.102,1.642-9.4-1.952-12.762
	c-2.704-2.53-6.392-3.336-9.731-2.485c-4.314-6.566-7.941-13.403-10.883-20.521c2.922-2.695,4.174-6.94,2.845-10.959
	c-1.317-3.982-4.798-6.628-8.703-7.089c-1.958-8.093-3.16-16.508-3.602-25.267c-0.281-5.559-4.869-9.922-10.435-9.922H10.449
	C4.678,88.929,0,93.608,0,99.378v313.245c0,5.77,4.678,10.449,10.449,10.449h491.102c5.77,0,10.449-4.679,10.449-10.449v-65.482
	C512,317.884,503.939,298.279,486.633,285.446z M490.676,336.693H377.245c0.517-6.263,1.502-12.206,2.96-17.745
	c6.361-24.171,19.944-35.117,25.83-38.865c4.774,1.168,9.384,2.257,13.869,3.315C464.896,294.013,487.38,299.317,490.676,336.693z
	 M20.898,109.827h171.376c0.762,6.802,1.96,13.432,3.575,19.896l-9.017,2.981c-2.561-1.633-5.593-2.592-8.849-2.592
	c-9.11,0-16.523,7.413-16.523,16.523c0,9.112,7.413,16.524,16.523,16.524c7.027,0,13.027-4.417,15.411-10.614l8.968-2.964
	c3.912,9.516,8.856,18.61,14.821,27.268l-5.708,6.101c-0.366-0.024-0.728-0.056-1.1-0.056c-9.11,0-16.523,7.412-16.523,16.524
	s7.413,16.523,16.523,16.523c9.11,0,16.523-7.413,16.523-16.523c0-0.745-0.067-1.472-0.162-2.192l3.575-3.82
	c5.642,6.237,11.89,12.212,18.744,17.916l-5.889,9.729c-8.012,1.136-14.2,8.021-14.2,16.341c0,9.112,7.412,16.524,16.523,16.524
	c9.11,0,16.523-7.412,16.523-16.524c0-1.937-0.353-3.79-0.969-5.519l4.803-7.935c7.47,5.082,15.53,9.939,24.206,14.578
	l-4.446,12.314c-6.417,2.271-11.034,8.381-11.034,15.566c0,9.112,7.412,16.523,16.523,16.523c9.11,0,16.523-7.413,16.523-16.523
	c0-3.096-0.871-5.984-2.358-8.464l3.65-10.108c21.006,9.574,45.09,18.148,72.568,25.839c-7.99,8.46-16.557,21.268-21.48,39.965
	c-1.903,7.231-3.146,14.956-3.717,23.066l-335.382-0.002V109.827z M491.102,402.174H20.898v-44.584h470.204V402.174z"/>
<path d="M195.353,368.817h-4.678c-5.77,0-10.449,4.678-10.449,10.449c0,5.77,4.679,10.449,10.449,10.449h4.678
	c5.77,0,10.449-4.679,10.449-10.449C205.802,373.495,201.123,368.817,195.353,368.817z"/>
<path d="M156.872,368.817H55.38c-5.77,0-10.449,4.678-10.449,10.449c0,5.77,4.679,10.449,10.449,10.449h101.492
	c5.77,0,10.449-4.679,10.449-10.449C167.321,373.495,162.641,368.817,156.872,368.817z"/>
<g>
</g>
<g>
</g>
<g>
</g>
<g>
</g>
<g>
</g>
<g>
</g>
<g>
</g>
<g>
</g>
<g>
</g>
<g>
</g>
<g>
</g>
<g>
</g>
<g>
</g>
<g>
</g>
<g>
</g>
</svg>
